# xmcd CD database file
#
# Track frame offsets:
#	150
#	23267
#	43540
#	60712
#	86262
#	106112
#	127067
#	146627
#	174030
#	201792
#
# Disc length: 3151 seconds
#
# Revision: 0
# Processed by: cddbd v1.5.1PL0 Copyright (c) Steve Scherf et al.
# Submitted via: CDex 1.51
#
DISCID=750c4d0a
DTITLE=George Butts - Sweet Spot
DYEAR=1993
DGENRE=Jazz
TTITLE0=Hey Baby
TTITLE1=All of Me
TTITLE2=Sweet Spot (for Lillie)
TTITLE3=Destiny
TTITLE4=Passion
TTITLE5=I Just  Can't Stop Loving You
TTITLE6='Till the End of Time
TTITLE7=Fantaisie Impromptu OP.66 (Variation)
TTITLE8=IReally Love the Lord/My Liberty
TTITLE9=Bright Lights - Mama Cut Your Toenails
EXTD=YEAR: 1993
EXTT0=
EXTT1=
EXTT2=
EXTT3=
EXTT4=
EXTT5=
EXTT6=
EXTT7=
EXTT8=
EXTT9=
PLAYORDER=
